# xmcd
# Track frame offsets:
# 182
# 21097
# 40400
# 58805
# 74540
# 90067
# 109627
# 132560
# 149377
# 168400
# 185827
#
# Disc length: 2650 seconds
# Revision: 0
# Processed by: cddbd v1.4PL0 Copyright (c) Steve Scherf et al.
# Submitted via: VisiTrax 2.9.5.181 - For more info visit www.synapsa.com
#
DISCID=9e0a580b
DTITLE=Venice Gospel Ensemble - Let's take time out
DYEAR=1997
DGENRE=Gospel
TTITLE0=Inside of you
TTITLE1=Are you still there?
TTITLE2=Wake up (moving on up)
TTITLE3=Give your best for Jesus
TTITLE4=Never turn back
TTITLE5=Light of the world
TTITLE6=Medley
TTITLE7=Just believe me
TTITLE8=Message in the distance
TTITLE9=May the Lord
TTITLE10=Amen
EXTD=
EXTT0=
EXTT1=
EXTT2=
EXTT3=
EXTT4=
EXTT5=
EXTT6=
EXTT7=
EXTT8=
EXTT9=
EXTT10=
PLAYORDER=
